# xmcd
#
# Track frame offsets: 
#        150
#        23262
#        50996
#        69657
#        100927
#        118483
#        140769
#        168503
#        186625
#        207697
#        231703
#        251964
#        274389
#        294833
#        316470
#        335747
#
# Disc length: 4783 seconds
#
# Revision: 0
# Processed by: cddbd v1.5.2PL0 Copyright (c) Steve Scherf et al.
# Submitted via: ExactAudioCopy v0.95a5
#
DISCID=1812ad10
DTITLE=Various Artist - The Hard Blues Masters  CD-3
DYEAR=2003
DGENRE=Blues
TTITLE0=L.P.S.Blues - TONY SPINNER
TTITLE1=Look Me Up - PAT TRAVERS
TTITLE2=Had Enough - ERIC JERARDI
TTITLE3=Time Traveler - SOUTHERN GENTLEMEN
TTITLE4=Aggravatin' Papa - ERIC SARDINAS
TTITLE5=Catchin' ZS - BLINDSIDE BLUES BAND
TTITLE6=De Ja Voodoo - KENNY WAYNE SHEPHERD
TTITLE7=In My Dream - ROBIN TROWER
TTITLE8=Cold Side of Cool - VAN WILKS
TTITLE9=Lies - GEORGIA BLUES DAWGS
TTITLE10=Runaway - INDIGENOUS
TTITLE11=Born to Ride - CADILLAC BLUES BAND
TTITLE12=Crazy for Loving You - SEAN CHAMBERS
TTITLE13=Ego Tripper - CRAIG ERICKSON
TTITLE14=Playing with a Loosin' Hand - WALTER TROUT
TTITLE15=Buncha Loud Boogie - MICHAEL KATON
EXTD=
EXTT0=
EXTT1=
EXTT2=
EXTT3=
EXTT4=
EXTT5=
EXTT6=
EXTT7=
EXTT8=
EXTT9=
EXTT10=
EXTT11=
EXTT12=
EXTT13=
EXTT14=
EXTT15=
PLAYORDER=
